<svg xmlns="http://www.w3.org/2000/svg" width="369.5" height="96" viewBox="0 0 369.5 96">
  <defs>
    <style>
      .cls-1, .cls-2, .cls-3 {
        fill: #1e9113;
        stroke: #1e9113;
        stroke-width: 3px;
      }

      .cls-1 {
        font-size: 75px;
        font-family: Lato-Regular, Lato;
        letter-spacing: -0.025em;
      }

      .cls-2 {
        opacity: 0;
      }
    </style>
  </defs>
  <g id="Group_2" data-name="Group 2" transform="translate(-820.5 -585)">
    <text id="bookfindr" class="cls-1" transform="translate(878 662)"><tspan x="0" y="0">bookfindr</tspan></text>
    <g id="Layer_2" data-name="Layer 2" transform="translate(833 619)">
      <g id="search">
        <rect id="Rectangle_5" data-name="Rectangle 5" class="cls-2" width="30" height="30"/>
        <path id="Path_2" data-name="Path 2" class="cls-3" d="M26.611,24.718,22.078,20.2a10.559,10.559,0,0,0,2.253-6.533A10.666,10.666,0,1,0,13.666,24.332,10.559,10.559,0,0,0,20.2,22.078l4.52,4.533a1.339,1.339,0,1,0,1.893-1.893ZM5.666,13.666a8,8,0,1,1,8,8,8,8,0,0,1-8-8Z"/>
      </g>
    </g>
    <g id="Group_1" data-name="Group 1" transform="translate(819.5 602)">
      <path id="Path_3" data-name="Path 3" class="cls-3" d="M2.5,1V64.636h50V60.091H7.045V55.545H52.5V1ZM7.045,51V5.545H47.955V51Z" transform="translate(0 0)"/>
      <path id="Path_4" data-name="Path 4" class="cls-3" d="M4.5,6h46V3H4.5Zm6.571-2H43.929V5H11.071Z" transform="translate(0)"/>
    </g>
  </g>
</svg>
